solid Exported from Blender-2.93.5
facet normal -0.755507 0.615187 0.225288
outer loop
vertex -0.612988 0.243701 -0.058000
vertex -0.566834 0.257903 0.058000
vertex -0.422463 0.435203 0.058000
endloop
endfacet
facet normal -0.759819 0.517822 0.393110
outer loop
vertex -0.612988 0.243701 -0.058000
vertex -0.422463 0.435203 0.058000
vertex -0.443765 0.492009 -0.058000
endloop
endfacet
facet normal 0.372660 0.927968 -0.000000
outer loop
vertex 0.038552 0.318582 -0.058000
vertex 0.038552 0.318582 0.058000
vertex 0.726789 0.042195 0.058000
endloop
endfacet
facet normal 0.263276 0.848363 0.459310
outer loop
vertex 0.038552 0.318582 -0.058000
vertex 0.726789 0.042195 0.058000
vertex 0.826199 0.074148 -0.058000
endloop
endfacet
facet normal 0.238683 -0.920017 0.310805
outer loop
vertex 0.570432 -0.235907 -0.058000
vertex 0.556231 -0.200403 0.058000
vertex 0.059042 -0.329391 0.058000
endloop
endfacet
facet normal 0.209017 -0.967595 0.141675
outer loop
vertex 0.570432 -0.235907 -0.058000
vertex 0.059042 -0.329391 0.058000
vertex 0.055491 -0.347143 -0.058000
endloop
endfacet
facet normal -0.293478 -0.940243 0.172665
outer loop
vertex -0.152115 -0.296586 -0.058000
vertex -0.152115 -0.275284 0.058000
vertex -0.473332 -0.175022 0.058000
endloop
endfacet
facet normal -0.294784 -0.940452 0.169269
outer loop
vertex -0.152115 -0.296586 -0.058000
vertex -0.473332 -0.175022 0.058000
vertex -0.494634 -0.189224 -0.058000
endloop
endfacet
facet normal 0.000000 0.000000 -1.000000
outer loop
vertex -0.612988 0.243701 -0.058000
vertex -0.443765 0.492009 -0.058000
vertex 0.038552 0.318582 -0.058000
endloop
endfacet
facet normal -0.000000 0.000000 -1.000000
outer loop
vertex 0.038552 0.318582 -0.058000
vertex 0.826199 0.074148 -0.058000
vertex 0.570432 -0.235907 -0.058000
endloop
endfacet
facet normal 0.000000 0.000000 -1.000000
outer loop
vertex 0.570432 -0.235907 -0.058000
vertex 0.055491 -0.347143 -0.058000
vertex -0.152115 -0.296586 -0.058000
endloop
endfacet
facet normal -0.000000 0.000000 -1.000000
outer loop
vertex -0.152115 -0.296586 -0.058000
vertex -0.494634 -0.189224 -0.058000
vertex -0.612988 0.243701 -0.058000
endloop
endfacet
facet normal 0.000000 0.000000 -1.000000
outer loop
vertex -0.612988 0.243701 -0.058000
vertex 0.038552 0.318582 -0.058000
vertex 0.570432 -0.235907 -0.058000
endloop
endfacet
facet normal 0.000000 0.000000 -1.000000
outer loop
vertex 0.570432 -0.235907 -0.058000
vertex -0.152115 -0.296586 -0.058000
vertex -0.612988 0.243701 -0.058000
endloop
endfacet
facet normal -0.000000 0.000000 1.000000
outer loop
vertex 0.556231 -0.200403 0.058000
vertex 0.726789 0.042195 0.058000
vertex 0.038552 0.318582 0.058000
endloop
endfacet
facet normal 0.000000 0.000000 1.000000
outer loop
vertex 0.038552 0.318582 0.058000
vertex -0.422463 0.435203 0.058000
vertex -0.566834 0.257903 0.058000
endloop
endfacet
facet normal 0.000000 0.000000 1.000000
outer loop
vertex -0.566834 0.257903 0.058000
vertex -0.473332 -0.175022 0.058000
vertex -0.152115 -0.275284 0.058000
endloop
endfacet
facet normal -0.000000 0.000000 1.000000
outer loop
vertex -0.152115 -0.275284 0.058000
vertex 0.059042 -0.329391 0.058000
vertex 0.556231 -0.200403 0.058000
endloop
endfacet
facet normal 0.000000 0.000000 1.000000
outer loop
vertex 0.556231 -0.200403 0.058000
vertex 0.038552 0.318582 0.058000
vertex -0.566834 0.257903 0.058000
endloop
endfacet
facet normal 0.000000 0.000000 1.000000
outer loop
vertex -0.566834 0.257903 0.058000
vertex -0.152115 -0.275284 0.058000
vertex 0.556231 -0.200403 0.058000
endloop
endfacet
facet normal 0.225319 0.890708 0.394805
outer loop
vertex -0.443765 0.492009 -0.058000
vertex -0.422463 0.435203 0.058000
vertex 0.038552 0.318582 0.058000
endloop
endfacet
facet normal 0.338362 0.941016 -0.000001
outer loop
vertex -0.443765 0.492009 -0.058000
vertex 0.038552 0.318582 0.058000
vertex 0.038552 0.318582 -0.058000
endloop
endfacet
facet normal 0.719021 -0.505506 0.476940
outer loop
vertex 0.826199 0.074148 -0.058000
vertex 0.726789 0.042195 0.058000
vertex 0.556231 -0.200403 0.058000
endloop
endfacet
facet normal 0.741042 -0.611290 0.277816
outer loop
vertex 0.826199 0.074148 -0.058000
vertex 0.556231 -0.200403 0.058000
vertex 0.570432 -0.235907 -0.058000
endloop
endfacet
facet normal -0.245262 -0.957150 0.153980
outer loop
vertex 0.055491 -0.347143 -0.058000
vertex 0.059042 -0.329391 0.058000
vertex -0.152115 -0.275284 0.058000
endloop
endfacet
facet normal -0.232929 -0.956499 0.175651
outer loop
vertex 0.055491 -0.347143 -0.058000
vertex -0.152115 -0.275284 0.058000
vertex -0.152115 -0.296586 -0.058000
endloop
endfacet
facet normal -0.957484 -0.206794 0.201147
outer loop
vertex -0.494634 -0.189224 -0.058000
vertex -0.473332 -0.175022 0.058000
vertex -0.566834 0.257903 0.058000
endloop
endfacet
facet normal -0.890587 -0.243471 0.384156
outer loop
vertex -0.494634 -0.189224 -0.058000
vertex -0.566834 0.257903 0.058000
vertex -0.612988 0.243701 -0.058000
endloop
endfacet
endsolid Exported from Blender-2.93.5
