solid Exported from Blender-2.93.5
facet normal 0.862082 -0.486095 0.143269
outer loop
vertex 0.508542 -0.067199 -0.058000
vertex 0.471676 -0.098390 0.058000
vertex 0.374190 -0.271281 0.058000
endloop
endfacet
facet normal 0.866503 -0.403064 0.294468
outer loop
vertex 0.508542 -0.067199 -0.058000
vertex 0.374190 -0.271281 0.058000
vertex 0.400471 -0.299529 -0.058000
endloop
endfacet
facet normal -0.051235 -0.916411 0.396945
outer loop
vertex -0.051832 -0.295142 -0.058000
vertex -0.045479 -0.245252 0.058000
vertex -0.298694 -0.231095 0.058000
endloop
endfacet
facet normal -0.095708 -0.943498 0.317256
outer loop
vertex -0.051832 -0.295142 -0.058000
vertex -0.298694 -0.231095 0.058000
vertex -0.319066 -0.268034 -0.058000
endloop
endfacet
facet normal -0.796992 0.394810 0.457087
outer loop
vertex -0.497504 -0.008542 -0.058000
vertex -0.436647 -0.019990 0.058000
vertex -0.330333 0.194623 0.058000
endloop
endfacet
facet normal -0.801620 0.582306 0.135371
outer loop
vertex -0.497504 -0.008542 -0.058000
vertex -0.330333 0.194623 0.058000
vertex -0.336371 0.213278 -0.058000
endloop
endfacet
facet normal -0.122596 0.978847 0.163794
outer loop
vertex -0.336371 0.213278 -0.058000
vertex -0.330333 0.194623 0.058000
vertex 0.215624 0.263002 0.058000
endloop
endfacet
facet normal -0.122999 0.978445 0.165885
outer loop
vertex -0.336371 0.213278 -0.058000
vertex 0.215624 0.263002 0.058000
vertex 0.229635 0.284429 -0.058000
endloop
endfacet
facet normal -0.000000 0.000000 -1.000000
outer loop
vertex 0.508542 -0.067199 -0.058000
vertex 0.400471 -0.299529 -0.058000
vertex -0.051832 -0.295142 -0.058000
endloop
endfacet
facet normal 0.000000 0.000000 -1.000000
outer loop
vertex -0.051832 -0.295142 -0.058000
vertex -0.319066 -0.268034 -0.058000
vertex -0.497504 -0.008542 -0.058000
endloop
endfacet
facet normal 0.000000 0.000000 -1.000000
outer loop
vertex -0.497504 -0.008542 -0.058000
vertex -0.336371 0.213278 -0.058000
vertex 0.229635 0.284429 -0.058000
endloop
endfacet
facet normal 0.000000 0.000000 -1.000000
outer loop
vertex 0.229635 0.284429 -0.058000
vertex 0.508542 -0.067199 -0.058000
vertex -0.051832 -0.295142 -0.058000
endloop
endfacet
facet normal 0.000000 0.000000 -1.000000
outer loop
vertex -0.051832 -0.295142 -0.058000
vertex -0.497504 -0.008542 -0.058000
vertex 0.229635 0.284429 -0.058000
endloop
endfacet
facet normal 0.000000 0.000000 1.000000
outer loop
vertex -0.436647 -0.019990 0.058000
vertex -0.298694 -0.231095 0.058000
vertex -0.045479 -0.245252 0.058000
endloop
endfacet
facet normal 0.000000 0.000000 1.000000
outer loop
vertex -0.045479 -0.245252 0.058000
vertex 0.374190 -0.271281 0.058000
vertex 0.471676 -0.098390 0.058000
endloop
endfacet
facet normal 0.000000 0.000000 1.000000
outer loop
vertex 0.471676 -0.098390 0.058000
vertex 0.215624 0.263002 0.058000
vertex -0.330333 0.194623 0.058000
endloop
endfacet
facet normal 0.000000 0.000000 1.000000
outer loop
vertex -0.330333 0.194623 0.058000
vertex -0.436647 -0.019990 0.058000
vertex -0.045479 -0.245252 0.058000
endloop
endfacet
facet normal 0.000000 0.000000 1.000000
outer loop
vertex -0.045479 -0.245252 0.058000
vertex 0.471676 -0.098390 0.058000
vertex -0.330333 0.194623 0.058000
endloop
endfacet
facet normal -0.060342 -0.972894 0.223240
outer loop
vertex 0.400471 -0.299529 -0.058000
vertex 0.374190 -0.271281 0.058000
vertex -0.045479 -0.245252 0.058000
endloop
endfacet
facet normal -0.008907 -0.918426 0.395493
outer loop
vertex 0.400471 -0.299529 -0.058000
vertex -0.045479 -0.245252 0.058000
vertex -0.051832 -0.295142 -0.058000
endloop
endfacet
facet normal -0.797004 -0.520824 0.305822
outer loop
vertex -0.319066 -0.268034 -0.058000
vertex -0.298694 -0.231095 0.058000
vertex -0.436647 -0.019990 0.058000
endloop
endfacet
facet normal -0.771174 -0.530292 0.352250
outer loop
vertex -0.319066 -0.268034 -0.058000
vertex -0.436647 -0.019990 0.058000
vertex -0.497504 -0.008542 -0.058000
endloop
endfacet
facet normal 0.799276 0.566301 0.201147
outer loop
vertex 0.229635 0.284429 -0.058000
vertex 0.215624 0.263002 0.058000
vertex 0.471676 -0.098390 0.058000
endloop
endfacet
facet normal 0.723350 0.573750 0.384156
outer loop
vertex 0.229635 0.284429 -0.058000
vertex 0.471676 -0.098390 0.058000
vertex 0.508542 -0.067199 -0.058000
endloop
endfacet
endsolid Exported from Blender-2.93.5
