solid Exported from Blender-2.93.5
facet normal -0.591862 0.000000 0.806039
outer loop
vertex -1.000000 -1.000000 -0.046189
vertex -0.874192 -0.874192 0.046189
vertex -0.874192 0.874192 0.046189
endloop
endfacet
facet normal -0.591862 0.000000 0.806039
outer loop
vertex -1.000000 -1.000000 -0.046189
vertex -0.874192 0.874192 0.046189
vertex -1.000000 1.000000 -0.046189
endloop
endfacet
facet normal 0.000000 0.591862 0.806040
outer loop
vertex -1.000000 1.000000 -0.046189
vertex -0.874192 0.874192 0.046189
vertex 0.874192 0.874192 0.046189
endloop
endfacet
facet normal 0.000000 0.591863 0.806039
outer loop
vertex -1.000000 1.000000 -0.046189
vertex 0.874192 0.874192 0.046189
vertex 1.000000 1.000000 -0.046189
endloop
endfacet
facet normal 0.591862 0.000000 0.806039
outer loop
vertex 1.000000 1.000000 -0.046189
vertex 0.874192 0.874192 0.046189
vertex 0.874192 -0.874192 0.046189
endloop
endfacet
facet normal 0.591862 0.000000 0.806039
outer loop
vertex 1.000000 1.000000 -0.046189
vertex 0.874192 -0.874192 0.046189
vertex 1.000000 -1.000000 -0.046189
endloop
endfacet
facet normal 0.000000 -0.591862 0.806040
outer loop
vertex 1.000000 -1.000000 -0.046189
vertex 0.874192 -0.874192 0.046189
vertex -0.874192 -0.874192 0.046189
endloop
endfacet
facet normal 0.000000 -0.591863 0.806039
outer loop
vertex 1.000000 -1.000000 -0.046189
vertex -0.874192 -0.874192 0.046189
vertex -1.000000 -1.000000 -0.046189
endloop
endfacet
facet normal 0.000000 0.000000 -1.000000
outer loop
vertex -1.000000 1.000000 -0.046189
vertex 1.000000 1.000000 -0.046189
vertex 1.000000 -1.000000 -0.046189
endloop
endfacet
facet normal 0.000000 0.000000 -1.000000
outer loop
vertex -1.000000 1.000000 -0.046189
vertex 1.000000 -1.000000 -0.046189
vertex -1.000000 -1.000000 -0.046189
endloop
endfacet
facet normal 0.000000 0.000000 1.000000
outer loop
vertex 0.874192 0.874192 0.046189
vertex 0.667884 0.654432 0.046189
vertex 0.677024 0.597982 0.046189
endloop
endfacet
facet normal 0.000000 0.000000 1.000000
outer loop
vertex 0.708976 0.451434 0.046189
vertex 0.687847 0.436933 0.046189
vertex 0.621234 0.383121 0.046189
endloop
endfacet
facet normal 0.000000 0.000000 1.000000
outer loop
vertex 0.874192 0.874192 0.046189
vertex 0.677024 0.597982 0.046189
vertex 0.708976 0.451434 0.046189
endloop
endfacet
facet normal 0.000000 0.000000 1.000000
outer loop
vertex 0.748437 -0.460189 0.046189
vertex 0.608579 -0.544109 0.046189
vertex 0.874192 -0.874192 0.046189
endloop
endfacet
facet normal 0.000002 0.000000 1.000000
outer loop
vertex 0.643678 -0.208915 0.046189
vertex 0.726276 -0.412524 0.046189
vertex 0.748437 -0.460189 0.046189
endloop
endfacet
facet normal -0.000000 0.000000 1.000000
outer loop
vertex -0.228881 0.412532 0.046189
vertex 0.620887 -0.207650 0.046189
vertex 0.643678 -0.208915 0.046189
endloop
endfacet
facet normal 0.000000 0.000000 1.000000
outer loop
vertex 0.410441 0.493897 0.046189
vertex 0.334243 0.541351 0.046189
vertex -0.228881 0.412532 0.046189
endloop
endfacet
facet normal 0.000000 0.000000 1.000000
outer loop
vertex 0.621234 0.383121 0.046189
vertex 0.574064 0.409995 0.046189
vertex 0.438990 0.477862 0.046189
endloop
endfacet
facet normal -0.000000 0.000000 1.000000
outer loop
vertex 0.438990 0.477862 0.046189
vertex 0.410441 0.493897 0.046189
vertex -0.228881 0.412532 0.046189
endloop
endfacet
facet normal 0.000000 0.000000 1.000000
outer loop
vertex 0.438990 0.477862 0.046189
vertex -0.228881 0.412532 0.046189
vertex 0.643678 -0.208915 0.046189
endloop
endfacet
facet normal -0.000000 0.000000 1.000000
outer loop
vertex 0.621234 0.383121 0.046189
vertex 0.438990 0.477862 0.046189
vertex 0.643678 -0.208915 0.046189
endloop
endfacet
facet normal 0.000000 0.000000 1.000000
outer loop
vertex 0.748437 -0.460189 0.046189
vertex 0.874192 -0.874192 0.046189
vertex 0.874192 0.874192 0.046189
endloop
endfacet
facet normal -0.000000 0.000000 1.000000
outer loop
vertex 0.621234 0.383121 0.046189
vertex 0.643678 -0.208915 0.046189
vertex 0.748437 -0.460189 0.046189
endloop
endfacet
facet normal 0.000000 0.000000 1.000000
outer loop
vertex 0.748437 -0.460189 0.046189
vertex 0.874192 0.874192 0.046189
vertex 0.708976 0.451434 0.046189
endloop
endfacet
facet normal 0.000000 0.000000 1.000000
outer loop
vertex 0.708976 0.451434 0.046189
vertex 0.621234 0.383121 0.046189
vertex 0.748437 -0.460189 0.046189
endloop
endfacet
facet normal -0.000000 0.000000 1.000000
outer loop
vertex 0.420401 0.739470 0.046189
vertex 0.667884 0.654432 0.046189
vertex 0.874192 0.874192 0.046189
endloop
endfacet
facet normal -0.000000 0.000000 1.000000
outer loop
vertex -0.874192 0.874192 0.046189
vertex -0.736032 0.726268 0.046189
vertex -0.716871 0.743361 0.046189
endloop
endfacet
facet normal -0.000001 0.000000 1.000000
outer loop
vertex -0.688575 0.725664 0.046189
vertex -0.625762 0.679088 0.046189
vertex -0.228881 0.412532 0.046189
endloop
endfacet
facet normal 0.000001 0.000000 1.000000
outer loop
vertex -0.874192 0.874192 0.046189
vertex -0.716871 0.743361 0.046189
vertex -0.688575 0.725664 0.046189
endloop
endfacet
facet normal 0.000000 0.000000 1.000000
outer loop
vertex 0.420401 0.739470 0.046189
vertex 0.874192 0.874192 0.046189
vertex -0.874192 0.874192 0.046189
endloop
endfacet
facet normal 0.000000 0.000000 1.000000
outer loop
vertex 0.339414 0.696619 0.046189
vertex 0.420401 0.739470 0.046189
vertex -0.874192 0.874192 0.046189
endloop
endfacet
facet normal 0.000000 0.000000 1.000000
outer loop
vertex -0.874192 0.874192 0.046189
vertex -0.688575 0.725664 0.046189
vertex -0.228881 0.412532 0.046189
endloop
endfacet
facet normal 0.000000 0.000000 1.000000
outer loop
vertex -0.228881 0.412532 0.046189
vertex 0.334243 0.541351 0.046189
vertex 0.330251 0.573665 0.046189
endloop
endfacet
facet normal 0.000000 0.000000 1.000000
outer loop
vertex 0.314890 0.677784 0.046189
vertex 0.339414 0.696619 0.046189
vertex -0.874192 0.874192 0.046189
endloop
endfacet
facet normal -0.000000 0.000000 1.000000
outer loop
vertex -0.228881 0.412532 0.046189
vertex 0.330251 0.573665 0.046189
vertex 0.314890 0.677784 0.046189
endloop
endfacet
facet normal 0.000000 0.000000 1.000000
outer loop
vertex -0.874192 0.874192 0.046189
vertex -0.228881 0.412532 0.046189
vertex 0.314890 0.677784 0.046189
endloop
endfacet
facet normal 0.000000 0.000000 1.000000
outer loop
vertex -0.618393 -0.627946 0.046189
vertex -0.646017 -0.607582 0.046189
vertex -0.874192 -0.874192 0.046189
endloop
endfacet
facet normal 0.000000 0.000000 1.000000
outer loop
vertex 0.874192 -0.874192 0.046189
vertex 0.608579 -0.544109 0.046189
vertex 0.572337 -0.563374 0.046189
endloop
endfacet
facet normal -0.000000 0.000000 1.000000
outer loop
vertex 0.874192 -0.874192 0.046189
vertex 0.572337 -0.563374 0.046189
vertex 0.439019 -0.558719 0.046189
endloop
endfacet
facet normal 0.000000 0.000000 1.000000
outer loop
vertex -0.525260 -0.688163 0.046189
vertex -0.618393 -0.627946 0.046189
vertex -0.874192 -0.874192 0.046189
endloop
endfacet
facet normal 0.000000 0.000000 1.000000
outer loop
vertex -0.308200 -0.714323 0.046189
vertex -0.525260 -0.688163 0.046189
vertex -0.874192 -0.874192 0.046189
endloop
endfacet
facet normal 0.000000 0.000000 1.000000
outer loop
vertex -0.874192 -0.874192 0.046189
vertex 0.874192 -0.874192 0.046189
vertex 0.439019 -0.558719 0.046189
endloop
endfacet
facet normal 0.000000 0.000000 1.000000
outer loop
vertex 0.408059 -0.555790 0.046189
vertex 0.389781 -0.531690 0.046189
vertex -0.089109 -0.613793 0.046189
endloop
endfacet
facet normal 0.000000 0.000000 1.000000
outer loop
vertex -0.874192 -0.874192 0.046189
vertex 0.439019 -0.558719 0.046189
vertex 0.408059 -0.555790 0.046189
endloop
endfacet
facet normal 0.000000 0.000000 1.000000
outer loop
vertex -0.255977 -0.718450 0.046189
vertex -0.308200 -0.714323 0.046189
vertex -0.874192 -0.874192 0.046189
endloop
endfacet
facet normal 0.000000 0.000000 1.000000
outer loop
vertex 0.408059 -0.555790 0.046189
vertex -0.089109 -0.613793 0.046189
vertex -0.113631 -0.631497 0.046189
endloop
endfacet
facet normal 0.000000 0.000000 1.000000
outer loop
vertex -0.255977 -0.718450 0.046189
vertex -0.874192 -0.874192 0.046189
vertex 0.408059 -0.555790 0.046189
endloop
endfacet
facet normal -0.000000 0.000000 1.000000
outer loop
vertex 0.408059 -0.555790 0.046189
vertex -0.113631 -0.631497 0.046189
vertex -0.255977 -0.718450 0.046189
endloop
endfacet
facet normal -0.000000 0.000000 1.000000
outer loop
vertex -0.757528 0.706356 0.046189
vertex -0.736032 0.726268 0.046189
vertex -0.874192 0.874192 0.046189
endloop
endfacet
facet normal 0.000000 0.000000 1.000000
outer loop
vertex -0.874192 -0.874192 0.046189
vertex -0.646017 -0.607582 0.046189
vertex -0.765818 -0.519046 0.046189
endloop
endfacet
facet normal 0.000000 0.000000 1.000000
outer loop
vertex -0.765818 -0.519046 0.046189
vertex -0.760412 -0.474200 0.046189
vertex -0.748159 -0.288346 0.046189
endloop
endfacet
facet normal 0.000002 0.000000 1.000000
outer loop
vertex -0.748159 -0.288346 0.046189
vertex -0.728337 -0.276064 0.046189
vertex -0.628306 -0.201601 0.046189
endloop
endfacet
facet normal 0.000000 0.000000 1.000000
outer loop
vertex -0.874192 -0.874192 0.046189
vertex -0.765818 -0.519046 0.046189
vertex -0.748159 -0.288346 0.046189
endloop
endfacet
facet normal 0.000000 0.000000 1.000000
outer loop
vertex -0.757528 0.706356 0.046189
vertex -0.874192 0.874192 0.046189
vertex -0.874192 -0.874192 0.046189
endloop
endfacet
facet normal 0.000000 0.000000 1.000000
outer loop
vertex -0.760445 0.651970 0.046189
vertex -0.757704 0.679917 0.046189
vertex -0.757528 0.706356 0.046189
endloop
endfacet
facet normal 0.000000 0.000000 1.000000
outer loop
vertex -0.760445 0.651970 0.046189
vertex -0.757528 0.706356 0.046189
vertex -0.874192 -0.874192 0.046189
endloop
endfacet
facet normal -0.000000 0.000000 1.000000
outer loop
vertex -0.760445 0.651970 0.046189
vertex -0.874192 -0.874192 0.046189
vertex -0.748159 -0.288346 0.046189
endloop
endfacet
facet normal 0.000000 0.000000 1.000000
outer loop
vertex -0.729044 0.599201 0.046189
vertex -0.760445 0.651970 0.046189
vertex -0.748159 -0.288346 0.046189
endloop
endfacet
facet normal 0.000000 0.000000 1.000000
outer loop
vertex -0.729044 0.599201 0.046189
vertex -0.748159 -0.288346 0.046189
vertex -0.628306 -0.201601 0.046189
endloop
endfacet
facet normal 0.000000 0.000000 1.000000
outer loop
vertex -0.704262 0.567117 0.046189
vertex -0.729044 0.599201 0.046189
vertex -0.628306 -0.201601 0.046189
endloop
endfacet
facet normal -0.000000 0.000000 1.000000
outer loop
vertex -0.704262 0.567117 0.046189
vertex -0.628306 -0.201601 0.046189
vertex -0.587751 -0.228199 0.046189
endloop
endfacet
facet normal -0.000002 0.000000 1.000000
outer loop
vertex 0.389781 -0.531690 0.046189
vertex -0.428930 0.282419 0.046189
vertex -0.543306 0.394681 0.046189
endloop
endfacet
facet normal 0.000000 0.000000 1.000000
outer loop
vertex -0.543306 0.394681 0.046189
vertex -0.704262 0.567117 0.046189
vertex -0.587751 -0.228199 0.046189
endloop
endfacet
facet normal -0.000001 0.000000 1.000000
outer loop
vertex -0.422069 -0.361595 0.046189
vertex -0.364932 -0.411161 0.046189
vertex -0.089109 -0.613793 0.046189
endloop
endfacet
facet normal 0.000000 0.000000 1.000000
outer loop
vertex -0.543306 0.394681 0.046189
vertex -0.587751 -0.228199 0.046189
vertex -0.422069 -0.361595 0.046189
endloop
endfacet
facet normal -0.000000 0.000000 1.000000
outer loop
vertex -0.089109 -0.613793 0.046189
vertex 0.389781 -0.531690 0.046189
vertex -0.543306 0.394681 0.046189
endloop
endfacet
facet normal 0.000000 0.000000 1.000000
outer loop
vertex -0.422069 -0.361595 0.046189
vertex -0.089109 -0.613793 0.046189
vertex -0.543306 0.394681 0.046189
endloop
endfacet
facet normal 0.960756 -0.094218 0.260904
outer loop
vertex -0.757704 0.679917 0.046189
vertex -0.760445 0.651970 0.046189
vertex -0.747679 0.655599 0.000491
endloop
endfacet
facet normal 0.976021 -0.006509 0.217579
outer loop
vertex -0.747679 0.655599 0.000491
vertex -0.747387 0.699412 0.000491
vertex -0.757528 0.706356 0.046189
endloop
endfacet
facet normal 0.976021 -0.006512 0.217579
outer loop
vertex -0.747679 0.655599 0.000491
vertex -0.757528 0.706356 0.046189
vertex -0.757704 0.679917 0.046189
endloop
endfacet
facet normal 0.792029 0.600736 0.108658
outer loop
vertex 0.389781 -0.531690 0.046189
vertex 0.408059 -0.555790 0.046189
vertex 0.391170 -0.525256 0.000491
endloop
endfacet
facet normal 0.701689 0.712483 0.000000
outer loop
vertex 0.391170 -0.525256 0.000491
vertex -0.428930 0.282419 0.000491
vertex -0.428930 0.282419 0.046189
endloop
endfacet
facet normal 0.699983 0.703939 0.120391
outer loop
vertex 0.389781 -0.531690 0.046189
vertex 0.391170 -0.525256 0.000491
vertex -0.428930 0.282419 0.046189
endloop
endfacet
facet normal -0.511218 -0.817369 0.265640
outer loop
vertex -0.688575 0.725664 0.046189
vertex -0.716871 0.743361 0.046189
vertex -0.715636 0.727737 0.000491
endloop
endfacet
facet normal -0.567900 -0.765873 0.301543
outer loop
vertex -0.715636 0.727737 0.000491
vertex -0.611551 0.650557 0.000491
vertex -0.625762 0.679088 0.046189
endloop
endfacet
facet normal -0.567901 -0.765874 0.301539
outer loop
vertex -0.715636 0.727737 0.000491
vertex -0.625762 0.679088 0.046189
vertex -0.688575 0.725664 0.046189
endloop
endfacet
facet normal -0.000001 -0.000000 1.000000
outer loop
vertex -0.611551 0.650557 0.000491
vertex -0.715636 0.727737 0.000491
vertex -0.747387 0.699412 0.000491
endloop
endfacet
facet normal -0.000000 -0.000000 1.000000
outer loop
vertex -0.747387 0.699412 0.000491
vertex -0.747679 0.655599 0.000491
vertex -0.695646 0.568157 0.000491
endloop
endfacet
facet normal -0.000001 -0.000001 1.000000
outer loop
vertex -0.695646 0.568157 0.000491
vertex -0.428930 0.282419 0.000491
vertex 0.391170 -0.525256 0.000491
endloop
endfacet
facet normal -0.000001 0.000001 1.000000
outer loop
vertex 0.391170 -0.525256 0.000491
vertex 0.540768 -0.539410 0.000491
vertex 0.715890 -0.446320 0.000491
endloop
endfacet
facet normal -0.000000 -0.000001 1.000000
outer loop
vertex 0.715890 -0.446320 0.000491
vertex 0.608809 -0.216006 0.000491
vertex -0.227814 0.394089 0.000491
endloop
endfacet
facet normal -0.000001 -0.000002 1.000000
outer loop
vertex -0.227814 0.394089 0.000491
vertex -0.611551 0.650557 0.000491
vertex -0.747387 0.699412 0.000491
endloop
endfacet
facet normal -0.000000 -0.000000 1.000000
outer loop
vertex -0.747387 0.699412 0.000491
vertex -0.695646 0.568157 0.000491
vertex 0.391170 -0.525256 0.000491
endloop
endfacet
facet normal -0.000000 -0.000000 1.000000
outer loop
vertex 0.391170 -0.525256 0.000491
vertex 0.715890 -0.446320 0.000491
vertex -0.227814 0.394089 0.000491
endloop
endfacet
facet normal -0.000001 -0.000001 1.000000
outer loop
vertex -0.747387 0.699412 0.000491
vertex 0.391170 -0.525256 0.000491
vertex -0.227814 0.394089 0.000491
endloop
endfacet
facet normal -0.735850 -0.298511 0.607796
outer loop
vertex 0.726276 -0.412524 0.046189
vertex 0.643678 -0.208915 0.046189
vertex 0.608809 -0.216006 0.000491
endloop
endfacet
facet normal -0.805213 -0.374372 0.459867
outer loop
vertex 0.608809 -0.216006 0.000491
vertex 0.715890 -0.446320 0.000491
vertex 0.748437 -0.460189 0.046189
endloop
endfacet
facet normal -0.805212 -0.374373 0.459867
outer loop
vertex 0.726276 -0.412524 0.046189
vertex 0.608809 -0.216006 0.000491
vertex 0.748437 -0.460189 0.046189
endloop
endfacet
facet normal 0.000000 0.000000 1.000000
outer loop
vertex 0.408059 -0.555790 0.046189
vertex 0.439019 -0.558719 0.046189
vertex 0.572337 -0.563374 0.046189
endloop
endfacet
facet normal 0.085666 0.905480 0.415653
outer loop
vertex 0.572337 -0.563374 0.046189
vertex 0.540768 -0.539410 0.000491
vertex 0.391170 -0.525256 0.000491
endloop
endfacet
facet normal 0.038661 0.837403 0.545218
outer loop
vertex 0.572337 -0.563374 0.046189
vertex 0.391170 -0.525256 0.000491
vertex 0.408059 -0.555790 0.046189
endloop
endfacet
facet normal 0.781084 0.603311 0.161008
outer loop
vertex -0.729044 0.599201 0.046189
vertex -0.704262 0.567117 0.046189
vertex -0.695646 0.568157 0.000491
endloop
endfacet
facet normal 0.827390 0.492342 0.270231
outer loop
vertex -0.695646 0.568157 0.000491
vertex -0.747679 0.655599 0.000491
vertex -0.760445 0.651970 0.046189
endloop
endfacet
facet normal 0.827390 0.492341 0.270234
outer loop
vertex -0.695646 0.568157 0.000491
vertex -0.760445 0.651970 0.046189
vertex -0.729044 0.599201 0.046189
endloop
endfacet
facet normal 0.657314 -0.709626 0.253710
outer loop
vertex -0.736032 0.726268 0.046189
vertex -0.757528 0.706356 0.046189
vertex -0.747387 0.699412 0.000491
endloop
endfacet
facet normal 0.642186 -0.719846 0.263474
outer loop
vertex -0.747387 0.699412 0.000491
vertex -0.715636 0.727737 0.000491
vertex -0.716871 0.743361 0.046189
endloop
endfacet
facet normal 0.642186 -0.719846 0.263473
outer loop
vertex -0.747387 0.699412 0.000491
vertex -0.716871 0.743361 0.046189
vertex -0.736032 0.726268 0.046189
endloop
endfacet
facet normal -0.528832 -0.791256 0.307001
outer loop
vertex -0.611551 0.650557 0.000491
vertex -0.227814 0.394089 0.000491
vertex -0.228881 0.412532 0.046189
endloop
endfacet
facet normal -0.527079 -0.784783 0.326043
outer loop
vertex -0.611551 0.650557 0.000491
vertex -0.228881 0.412532 0.046189
vertex -0.625762 0.679088 0.046189
endloop
endfacet
facet normal 0.000000 0.000000 1.000000
outer loop
vertex 0.572337 -0.563374 0.046189
vertex 0.608579 -0.544109 0.046189
vertex 0.748437 -0.460189 0.046189
endloop
endfacet
facet normal -0.402083 0.756410 0.515919
outer loop
vertex 0.748437 -0.460189 0.046189
vertex 0.715890 -0.446320 0.000491
vertex 0.540768 -0.539410 0.000491
endloop
endfacet
facet normal -0.394444 0.673176 0.625498
outer loop
vertex 0.748437 -0.460189 0.046189
vertex 0.540768 -0.539410 0.000491
vertex 0.572337 -0.563374 0.046189
endloop
endfacet
facet normal 0.700480 0.713672 0.000000
outer loop
vertex -0.543306 0.394681 0.046189
vertex -0.428930 0.282419 0.046189
vertex -0.428930 0.282419 0.000491
endloop
endfacet
facet normal 0.722571 0.674469 0.151596
outer loop
vertex -0.428930 0.282419 0.000491
vertex -0.695646 0.568157 0.000491
vertex -0.704262 0.567117 0.046189
endloop
endfacet
facet normal 0.722571 0.674470 0.151593
outer loop
vertex -0.428930 0.282419 0.000491
vertex -0.704262 0.567117 0.046189
vertex -0.543306 0.394681 0.046189
endloop
endfacet
facet normal -0.562726 -0.771042 0.298051
outer loop
vertex 0.620887 -0.207650 0.046189
vertex -0.228881 0.412532 0.046189
vertex -0.227814 0.394089 0.000491
endloop
endfacet
facet normal -0.054373 -0.979592 0.193503
outer loop
vertex 0.608809 -0.216006 0.000491
vertex 0.643678 -0.208915 0.046189
vertex 0.620887 -0.207650 0.046189
endloop
endfacet
facet normal -0.563817 -0.773161 0.290401
outer loop
vertex -0.227814 0.394089 0.000491
vertex 0.608809 -0.216006 0.000491
vertex 0.620887 -0.207650 0.046189
endloop
endfacet
facet normal -0.525209 0.847622 0.075447
outer loop
vertex -0.728337 -0.276064 0.046189
vertex -0.748159 -0.288346 0.046189
vertex -0.728131 -0.289031 0.193312
endloop
endfacet
facet normal -0.521051 0.840914 0.146185
outer loop
vertex -0.728131 -0.289031 0.193312
vertex -0.627649 -0.226770 0.193312
vertex -0.628306 -0.201601 0.046189
endloop
endfacet
facet normal -0.595592 0.800111 0.071358
outer loop
vertex -0.728131 -0.289031 0.193312
vertex -0.628306 -0.201601 0.046189
vertex -0.728337 -0.276064 0.046189
endloop
endfacet
facet normal 0.655288 0.755379 0.000000
outer loop
vertex -0.422069 -0.361595 0.046189
vertex -0.422069 -0.361595 0.193312
vertex -0.132433 -0.612853 0.193312
endloop
endfacet
facet normal 0.583754 0.794607 0.166824
outer loop
vertex -0.132433 -0.612853 0.193312
vertex -0.089109 -0.613793 0.046189
vertex -0.364932 -0.411161 0.046189
endloop
endfacet
facet normal 0.655288 0.755379 0.000002
outer loop
vertex -0.132433 -0.612853 0.193312
vertex -0.364932 -0.411161 0.046189
vertex -0.422069 -0.361595 0.046189
endloop
endfacet
facet normal -0.078324 -0.991235 0.106392
outer loop
vertex -0.255977 -0.718450 0.046189
vertex -0.256736 -0.702599 0.193312
vertex -0.521462 -0.681681 0.193312
endloop
endfacet
facet normal -0.119524 -0.991729 0.046779
outer loop
vertex -0.521462 -0.681681 0.193312
vertex -0.525260 -0.688163 0.046189
vertex -0.308200 -0.714323 0.046189
endloop
endfacet
facet normal -0.078325 -0.991235 0.106387
outer loop
vertex -0.521462 -0.681681 0.193312
vertex -0.308200 -0.714323 0.046189
vertex -0.255977 -0.718450 0.046189
endloop
endfacet
facet normal -0.000095 0.000000 1.000000
outer loop
vertex -0.765818 -0.519046 0.046189
vertex -0.646017 -0.607582 0.046189
vertex -0.618393 -0.627946 0.046189
endloop
endfacet
facet normal -0.592396 -0.803609 0.057266
outer loop
vertex -0.618393 -0.627946 0.046189
vertex -0.615506 -0.619590 0.193312
vertex -0.755538 -0.516363 0.193312
endloop
endfacet
facet normal -0.593219 -0.803084 0.056099
outer loop
vertex -0.618393 -0.627946 0.046189
vertex -0.755538 -0.516363 0.193312
vertex -0.765818 -0.519046 0.046189
endloop
endfacet
facet normal 0.000000 0.000000 1.000000
outer loop
vertex -0.615506 -0.619590 0.193312
vertex -0.521462 -0.681681 0.193312
vertex -0.256736 -0.702599 0.193312
endloop
endfacet
facet normal 0.000000 0.000000 1.000000
outer loop
vertex -0.256736 -0.702599 0.193312
vertex -0.132433 -0.612853 0.193312
vertex -0.422069 -0.361595 0.193312
endloop
endfacet
facet normal 0.000000 0.000000 1.000000
outer loop
vertex -0.422069 -0.361595 0.193312
vertex -0.627649 -0.226770 0.193312
vertex -0.728131 -0.289031 0.193312
endloop
endfacet
facet normal 0.000000 0.000000 1.000000
outer loop
vertex -0.728131 -0.289031 0.193312
vertex -0.755538 -0.516363 0.193312
vertex -0.615506 -0.619590 0.193312
endloop
endfacet
facet normal 0.000000 0.000000 1.000000
outer loop
vertex -0.615506 -0.619590 0.193312
vertex -0.256736 -0.702599 0.193312
vertex -0.422069 -0.361595 0.193312
endloop
endfacet
facet normal 0.000000 0.000000 1.000000
outer loop
vertex -0.422069 -0.361595 0.193312
vertex -0.728131 -0.289031 0.193312
vertex -0.615506 -0.619590 0.193312
endloop
endfacet
facet normal 0.543066 0.828065 0.139237
outer loop
vertex -0.628306 -0.201601 0.046189
vertex -0.627649 -0.226770 0.193312
vertex -0.422069 -0.361595 0.193312
endloop
endfacet
facet normal 0.627132 0.778913 0.000000
outer loop
vertex -0.422069 -0.361595 0.193312
vertex -0.422069 -0.361595 0.046189
vertex -0.587751 -0.228199 0.046189
endloop
endfacet
facet normal 0.543067 0.828065 0.139237
outer loop
vertex -0.422069 -0.361595 0.193312
vertex -0.587751 -0.228199 0.046189
vertex -0.628306 -0.201601 0.046189
endloop
endfacet
facet normal 0.576356 -0.798280 0.174822
outer loop
vertex -0.089109 -0.613793 0.046189
vertex -0.132433 -0.612853 0.193312
vertex -0.256736 -0.702599 0.193312
endloop
endfacet
facet normal 0.518971 -0.849584 0.094209
outer loop
vertex -0.256736 -0.702599 0.193312
vertex -0.255977 -0.718450 0.046189
vertex -0.113631 -0.631497 0.046189
endloop
endfacet
facet normal 0.576355 -0.798281 0.174822
outer loop
vertex -0.256736 -0.702599 0.193312
vertex -0.113631 -0.631497 0.046189
vertex -0.089109 -0.613793 0.046189
endloop
endfacet
facet normal -0.550263 -0.833437 0.050927
outer loop
vertex -0.525260 -0.688163 0.046189
vertex -0.521462 -0.681681 0.193312
vertex -0.615506 -0.619590 0.193312
endloop
endfacet
facet normal -0.542042 -0.838330 0.058250
outer loop
vertex -0.525260 -0.688163 0.046189
vertex -0.615506 -0.619590 0.193312
vertex -0.618393 -0.627946 0.046189
endloop
endfacet
facet normal -0.990577 0.119424 0.067040
outer loop
vertex -0.765818 -0.519046 0.046189
vertex -0.755538 -0.516363 0.193312
vertex -0.728131 -0.289031 0.193312
endloop
endfacet
facet normal -0.988713 0.065180 0.134903
outer loop
vertex -0.728131 -0.289031 0.193312
vertex -0.748159 -0.288346 0.046189
vertex -0.760412 -0.474200 0.046189
endloop
endfacet
facet normal -0.990577 0.119424 0.067041
outer loop
vertex -0.728131 -0.289031 0.193312
vertex -0.760412 -0.474200 0.046189
vertex -0.765818 -0.519046 0.046189
endloop
endfacet
facet normal 0.565421 -0.823872 0.039158
outer loop
vertex 0.687847 0.436933 0.046189
vertex 0.708976 0.451434 0.046189
vertex 0.693324 0.447499 0.189396
endloop
endfacet
facet normal 0.563784 -0.821486 0.085487
outer loop
vertex 0.693324 0.447499 0.189396
vertex 0.617505 0.395464 0.189396
vertex 0.621234 0.383121 0.046189
endloop
endfacet
facet normal 0.628057 -0.777453 0.033337
outer loop
vertex 0.693324 0.447499 0.189396
vertex 0.621234 0.383121 0.046189
vertex 0.687847 0.436933 0.046189
endloop
endfacet
facet normal -0.486385 -0.865973 0.116279
outer loop
vertex 0.410441 0.493897 0.046189
vertex 0.438990 0.477862 0.046189
vertex 0.448238 0.491897 0.189396
endloop
endfacet
facet normal -0.487791 -0.868475 0.088376
outer loop
vertex 0.448238 0.491897 0.189396
vertex 0.345791 0.549438 0.189396
vertex 0.334243 0.541351 0.046189
endloop
endfacet
facet normal -0.524384 -0.842012 0.126642
outer loop
vertex 0.448238 0.491897 0.189396
vertex 0.334243 0.541351 0.046189
vertex 0.410441 0.493897 0.046189
endloop
endfacet
facet normal 0.000001 0.000000 1.000000
outer loop
vertex 0.420401 0.739470 0.046189
vertex 0.339414 0.696619 0.046189
vertex 0.314890 0.677784 0.046189
endloop
endfacet
facet normal -0.603311 0.785513 0.137791
outer loop
vertex 0.314890 0.677784 0.046189
vertex 0.331466 0.665394 0.189396
vertex 0.419469 0.732984 0.189396
endloop
endfacet
facet normal -0.504391 0.862734 0.035788
outer loop
vertex 0.314890 0.677784 0.046189
vertex 0.419469 0.732984 0.189396
vertex 0.420401 0.739470 0.046189
endloop
endfacet
facet normal 0.324943 0.944638 0.045508
outer loop
vertex 0.419469 0.732984 0.189396
vertex 0.660527 0.650063 0.189396
vertex 0.667884 0.654432 0.046189
endloop
endfacet
facet normal 0.324638 0.944772 0.044903
outer loop
vertex 0.419469 0.732984 0.189396
vertex 0.667884 0.654432 0.046189
vertex 0.420401 0.739470 0.046189
endloop
endfacet
facet normal 0.000000 0.000000 1.000000
outer loop
vertex 0.617505 0.395464 0.189396
vertex 0.693324 0.447499 0.189396
vertex 0.660527 0.650063 0.189396
endloop
endfacet
facet normal 0.000000 0.000000 1.000000
outer loop
vertex 0.660527 0.650063 0.189396
vertex 0.419469 0.732984 0.189396
vertex 0.331466 0.665394 0.189396
endloop
endfacet
facet normal 0.000000 0.000000 1.000000
outer loop
vertex 0.331466 0.665394 0.189396
vertex 0.345791 0.549438 0.189396
vertex 0.448238 0.491897 0.189396
endloop
endfacet
facet normal 0.000000 0.000000 1.000000
outer loop
vertex 0.448238 0.491897 0.189396
vertex 0.617505 0.395464 0.189396
vertex 0.660527 0.650063 0.189396
endloop
endfacet
facet normal 0.000000 0.000000 1.000000
outer loop
vertex 0.660527 0.650063 0.189396
vertex 0.331466 0.665394 0.189396
vertex 0.448238 0.491897 0.189396
endloop
endfacet
facet normal -0.494063 -0.867221 0.061878
outer loop
vertex 0.574064 0.409995 0.046189
vertex 0.621234 0.383121 0.046189
vertex 0.617505 0.395464 0.189396
endloop
endfacet
facet normal -0.491651 -0.862988 0.116326
outer loop
vertex 0.617505 0.395464 0.189396
vertex 0.448238 0.491897 0.189396
vertex 0.438990 0.477862 0.046189
endloop
endfacet
facet normal -0.448495 -0.892627 0.045478
outer loop
vertex 0.617505 0.395464 0.189396
vertex 0.438990 0.477862 0.046189
vertex 0.574064 0.409995 0.046189
endloop
endfacet
facet normal -0.988725 -0.122143 0.086627
outer loop
vertex 0.330251 0.573665 0.046189
vertex 0.334243 0.541351 0.046189
vertex 0.345791 0.549438 0.189396
endloop
endfacet
facet normal -0.987104 -0.121942 0.103710
outer loop
vertex 0.345791 0.549438 0.189396
vertex 0.331466 0.665394 0.189396
vertex 0.314890 0.677784 0.046189
endloop
endfacet
facet normal -0.985928 -0.145461 0.082378
outer loop
vertex 0.330251 0.573665 0.046189
vertex 0.345791 0.549438 0.189396
vertex 0.314890 0.677784 0.046189
endloop
endfacet
facet normal 0.985623 0.159582 0.055502
outer loop
vertex 0.677024 0.597982 0.046189
vertex 0.667884 0.654432 0.046189
vertex 0.660527 0.650063 0.189396
endloop
endfacet
facet normal 0.980981 0.158830 0.111576
outer loop
vertex 0.660527 0.650063 0.189396
vertex 0.693324 0.447499 0.189396
vertex 0.708976 0.451434 0.046189
endloop
endfacet
facet normal 0.976447 0.212891 0.035056
outer loop
vertex 0.660527 0.650063 0.189396
vertex 0.708976 0.451434 0.046189
vertex 0.677024 0.597982 0.046189
endloop
endfacet
endsolid Exported from Blender-2.93.5
