solid Exported from Blender-2.93.5
facet normal -0.698584 0.619075 0.358784
outer loop
vertex -1.849383 0.051564 -0.057624
vertex -1.796395 0.044566 0.057624
vertex -1.746290 0.101105 0.057624
endloop
endfacet
facet normal -0.730242 0.536959 0.422400
outer loop
vertex -1.849383 0.051564 -0.057624
vertex -1.746290 0.101105 0.057624
vertex -1.777045 0.149941 -0.057624
endloop
endfacet
facet normal -0.058021 0.998315 0.000001
outer loop
vertex 1.089409 0.328627 -0.057624
vertex -0.907422 0.212573 -0.057624
vertex -0.907422 0.212573 0.057624
endloop
endfacet
facet normal -0.043045 0.935749 0.350030
outer loop
vertex -0.907422 0.212573 0.057624
vertex 1.075208 0.303774 0.057624
vertex 1.146888 0.328627 0.000000
endloop
endfacet
facet normal -0.054790 0.997001 0.054653
outer loop
vertex -0.907422 0.212573 0.057624
vertex 1.146888 0.328627 0.000000
vertex 1.089409 0.328627 -0.057624
endloop
endfacet
facet normal -0.082190 -0.874088 0.478765
outer loop
vertex -1.694731 -0.100277 -0.057624
vertex -1.565853 -0.049271 0.057624
vertex -1.788300 -0.028354 0.057624
endloop
endfacet
facet normal -0.155375 -0.889776 0.429136
outer loop
vertex -1.694731 -0.100277 -0.057624
vertex -1.788300 -0.028354 0.057624
vertex -1.837696 -0.075312 -0.057624
endloop
endfacet
facet normal -0.000000 0.000001 -1.000000
outer loop
vertex -1.849383 0.051564 -0.057624
vertex -1.777045 0.149941 -0.057624
vertex -1.603645 0.181730 -0.057624
endloop
endfacet
facet normal -0.000000 0.000000 -1.000000
outer loop
vertex -0.907422 0.212573 -0.057624
vertex 1.089409 0.328627 -0.057624
vertex 1.375731 0.082110 -0.057624
endloop
endfacet
facet normal 0.000000 0.000001 -1.000000
outer loop
vertex -1.849383 0.051564 -0.057624
vertex -1.603645 0.181730 -0.057624
vertex -0.907422 0.212573 -0.057624
endloop
endfacet
facet normal -0.000000 0.000000 -1.000000
outer loop
vertex -1.694731 -0.100277 -0.057624
vertex -1.837696 -0.075312 -0.057624
vertex -1.849383 0.051564 -0.057624
endloop
endfacet
facet normal 0.000000 0.000001 -1.000000
outer loop
vertex 1.012882 -0.405829 -0.057624
vertex -0.835132 -0.218970 -0.057624
vertex -1.694731 -0.100277 -0.057624
endloop
endfacet
facet normal 0.000000 0.000000 -1.000000
outer loop
vertex 1.375731 0.082110 -0.057624
vertex 1.429220 -0.196475 -0.057624
vertex 1.012882 -0.405829 -0.057624
endloop
endfacet
facet normal 0.000000 0.000001 -1.000000
outer loop
vertex -1.849383 0.051564 -0.057624
vertex -0.907422 0.212573 -0.057624
vertex 1.375731 0.082110 -0.057624
endloop
endfacet
facet normal 0.000000 0.000000 -1.000000
outer loop
vertex 1.012882 -0.405829 -0.057624
vertex -1.694731 -0.100277 -0.057624
vertex -1.849383 0.051564 -0.057624
endloop
endfacet
facet normal 0.000000 0.000000 -1.000000
outer loop
vertex 1.375731 0.082110 -0.057624
vertex 1.012882 -0.405829 -0.057624
vertex -1.849383 0.051564 -0.057624
endloop
endfacet
facet normal 0.000000 -0.000001 1.000000
outer loop
vertex 1.283422 0.149567 0.057624
vertex 1.075208 0.303774 0.057624
vertex -0.907422 0.212573 0.057624
endloop
endfacet
facet normal 0.000000 -0.000000 1.000000
outer loop
vertex -0.907422 0.212573 0.057624
vertex -1.578793 0.153327 0.057624
vertex -1.746290 0.101105 0.057624
endloop
endfacet
facet normal 0.000000 -0.000000 1.000000
outer loop
vertex -1.746290 0.101105 0.057624
vertex -1.796395 0.044566 0.057624
vertex -1.788300 -0.028354 0.057624
endloop
endfacet
facet normal -0.000000 -0.000001 1.000000
outer loop
vertex -1.565853 -0.049271 0.057624
vertex -0.778090 -0.162401 0.057624
vertex 0.998088 -0.343698 0.057624
endloop
endfacet
facet normal 0.000000 -0.000000 1.000000
outer loop
vertex -1.746290 0.101105 0.057624
vertex -1.788300 -0.028354 0.057624
vertex -1.565853 -0.049271 0.057624
endloop
endfacet
facet normal 0.000000 -0.000001 1.000000
outer loop
vertex 1.283422 0.149567 0.057624
vertex -0.907422 0.212573 0.057624
vertex -1.746290 0.101105 0.057624
endloop
endfacet
facet normal -0.000000 -0.000000 1.000000
outer loop
vertex 0.998088 -0.343698 0.057624
vertex 1.400817 -0.171623 0.057624
vertex 1.283422 0.149567 0.057624
endloop
endfacet
facet normal -0.000000 -0.000001 1.000000
outer loop
vertex -1.746290 0.101105 0.057624
vertex -1.565853 -0.049271 0.057624
vertex 0.998088 -0.343698 0.057624
endloop
endfacet
facet normal 0.000000 -0.000000 1.000000
outer loop
vertex -1.746290 0.101105 0.057624
vertex 0.998088 -0.343698 0.057624
vertex 1.283422 0.149567 0.057624
endloop
endfacet
facet normal 0.293071 -0.685912 0.666058
outer loop
vertex 1.473613 -0.196475 -0.000000
vertex 1.400817 -0.171623 0.057624
vertex 0.998088 -0.343698 0.057624
endloop
endfacet
facet normal 0.264652 -0.542852 0.797039
outer loop
vertex 1.473613 -0.196475 -0.000000
vertex 0.998088 -0.343698 0.057624
vertex 1.044189 -0.405829 -0.000000
endloop
endfacet
facet normal 0.415196 -0.851645 -0.319865
outer loop
vertex 1.429220 -0.196475 -0.057624
vertex 1.473613 -0.196475 -0.000000
vertex 1.044189 -0.405829 -0.000000
endloop
endfacet
facet normal 0.436434 -0.867929 -0.237118
outer loop
vertex 1.429220 -0.196475 -0.057624
vertex 1.044189 -0.405829 -0.000000
vertex 1.012882 -0.405829 -0.057624
endloop
endfacet
facet normal 0.540547 0.645821 -0.539188
outer loop
vertex 1.089409 0.328627 -0.057624
vertex 1.146888 0.328627 0.000000
vertex 1.369304 0.142466 0.000000
endloop
endfacet
facet normal 0.529252 0.614712 -0.584825
outer loop
vertex 1.089409 0.328627 -0.057624
vertex 1.369304 0.142466 0.000000
vertex 1.375731 0.082110 -0.057624
endloop
endfacet
facet normal 0.402965 0.544093 0.735923
outer loop
vertex 1.146888 0.328627 0.000000
vertex 1.075208 0.303774 0.057624
vertex 1.283422 0.149567 0.057624
endloop
endfacet
facet normal 0.486129 0.580805 0.652950
outer loop
vertex 1.146888 0.328627 0.000000
vertex 1.283422 0.149567 0.057624
vertex 1.369304 0.142466 0.000000
endloop
endfacet
facet normal 0.407265 -0.607625 0.681856
outer loop
vertex 1.283422 0.149567 0.057624
vertex 1.375731 0.082110 -0.057624
vertex 1.369304 0.142466 0.000000
endloop
endfacet
facet normal -0.267917 0.859330 0.435629
outer loop
vertex -1.777045 0.149941 -0.057624
vertex -1.746290 0.101105 0.057624
vertex -1.578793 0.153327 0.057624
endloop
endfacet
facet normal -0.173585 0.946860 0.270785
outer loop
vertex -1.777045 0.149941 -0.057624
vertex -1.578793 0.153327 0.057624
vertex -1.603645 0.181730 -0.057624
endloop
endfacet
facet normal -0.899172 -0.099816 0.426059
outer loop
vertex -1.837696 -0.075312 -0.057624
vertex -1.788300 -0.028354 0.057624
vertex -1.796395 0.044566 0.057624
endloop
endfacet
facet normal -0.907307 -0.083572 0.412079
outer loop
vertex -1.837696 -0.075312 -0.057624
vertex -1.796395 0.044566 0.057624
vertex -1.849383 0.051564 -0.057624
endloop
endfacet
facet normal -0.124227 -0.865037 0.486084
outer loop
vertex -0.835132 -0.218970 -0.057624
vertex -0.778090 -0.162401 0.057624
vertex -1.565853 -0.049271 0.057624
endloop
endfacet
facet normal -0.117734 -0.852660 0.509029
outer loop
vertex -0.835132 -0.218970 -0.057624
vertex -1.565853 -0.049271 0.057624
vertex -1.694731 -0.100277 -0.057624
endloop
endfacet
facet normal 0.936935 0.288343 -0.197513
outer loop
vertex 1.375731 0.082110 -0.057624
vertex 1.369304 0.142466 0.000000
vertex 1.473613 -0.196475 -0.000000
endloop
endfacet
facet normal 0.783171 0.150370 -0.603351
outer loop
vertex 1.375731 0.082110 -0.057624
vertex 1.473613 -0.196475 -0.000000
vertex 1.429220 -0.196475 -0.057624
endloop
endfacet
facet normal 0.557052 0.203603 0.805133
outer loop
vertex 1.369304 0.142466 0.000000
vertex 1.283422 0.149567 0.057624
vertex 1.400817 -0.171623 0.057624
endloop
endfacet
facet normal 0.649174 0.199784 0.733934
outer loop
vertex 1.369304 0.142466 0.000000
vertex 1.400817 -0.171623 0.057624
vertex 1.473613 -0.196475 -0.000000
endloop
endfacet
facet normal -0.084983 0.963024 0.255662
outer loop
vertex -1.603645 0.181730 -0.057624
vertex -1.578793 0.153327 0.057624
vertex -0.907422 0.212573 0.057624
endloop
endfacet
facet normal -0.044257 0.999020 0.000001
outer loop
vertex -1.603645 0.181730 -0.057624
vertex -0.907422 0.212573 0.057624
vertex -0.907422 0.212573 -0.057624
endloop
endfacet
facet normal -0.100451 -0.993444 0.054574
outer loop
vertex -0.835132 -0.218970 -0.057624
vertex 1.012882 -0.405829 -0.057624
vertex 1.044189 -0.405829 -0.000000
endloop
endfacet
facet normal -0.072112 -0.706483 0.704047
outer loop
vertex 1.044189 -0.405829 -0.000000
vertex 0.998088 -0.343698 0.057624
vertex -0.778090 -0.162401 0.057624
endloop
endfacet
facet normal -0.101399 -0.872296 0.478348
outer loop
vertex 1.044189 -0.405829 -0.000000
vertex -0.778090 -0.162401 0.057624
vertex -0.835132 -0.218970 -0.057624
endloop
endfacet
endsolid Exported from Blender-2.93.5
