solid Exported from Blender-2.93.5
facet normal -0.933260 0.358130 -0.027717
outer loop
vertex -0.028057 -0.031755 0.114271
vertex -0.029872 -0.033228 0.156333
vertex -0.015998 0.002924 0.156333
endloop
endfacet
facet normal -0.972452 0.206137 0.108833
outer loop
vertex -0.028057 -0.031755 0.114271
vertex -0.015998 0.002924 0.156333
vertex -0.021755 0.014907 0.082199
endloop
endfacet
facet normal -0.575719 0.798953 0.173845
outer loop
vertex -0.021755 0.014907 0.082199
vertex -0.015998 0.002924 0.156333
vertex 0.008921 0.020881 0.156333
endloop
endfacet
facet normal -0.337690 0.939075 0.064058
outer loop
vertex -0.021755 0.014907 0.082199
vertex 0.008921 0.020881 0.156333
vertex 0.024394 0.029314 0.114271
endloop
endfacet
facet normal 0.912714 0.172597 0.370355
outer loop
vertex 0.024394 0.029314 0.114271
vertex 0.008921 0.020881 0.156333
vertex 0.017842 -0.026292 0.156333
endloop
endfacet
facet normal 0.934117 0.138723 0.328909
outer loop
vertex 0.024394 0.029314 0.114271
vertex 0.017842 -0.026292 0.156333
vertex 0.034051 -0.035709 0.114271
endloop
endfacet
facet normal 0.138647 -0.953683 0.266956
outer loop
vertex 0.034051 -0.035709 0.114271
vertex 0.017842 -0.026292 0.156333
vertex -0.029872 -0.033228 0.156333
endloop
endfacet
facet normal -0.063492 -0.997271 -0.037664
outer loop
vertex 0.034051 -0.035709 0.114271
vertex -0.029872 -0.033228 0.156333
vertex -0.028057 -0.031755 0.114271
endloop
endfacet
facet normal 0.000000 0.000000 -1.000000
outer loop
vertex -0.069564 0.048782 -0.058000
vertex 0.049441 0.075758 -0.058000
vertex 0.070636 -0.079857 -0.058000
endloop
endfacet
facet normal 0.000000 0.000000 -1.000000
outer loop
vertex -0.069564 0.048782 -0.058000
vertex 0.070636 -0.079857 -0.058000
vertex -0.075344 -0.060589 -0.058000
endloop
endfacet
facet normal -0.000001 0.000000 1.000000
outer loop
vertex 0.008921 0.020881 0.156333
vertex -0.015998 0.002924 0.156333
vertex -0.029872 -0.033228 0.156333
endloop
endfacet
facet normal 0.000000 0.000000 1.000000
outer loop
vertex 0.008921 0.020881 0.156333
vertex -0.029872 -0.033228 0.156333
vertex 0.017842 -0.026292 0.156333
endloop
endfacet
facet normal -0.061751 -0.969923 0.235448
outer loop
vertex 0.070636 -0.079857 -0.058000
vertex 0.034051 -0.035709 0.114271
vertex -0.028057 -0.031755 0.114271
endloop
endfacet
facet normal -0.128269 -0.971801 0.197864
outer loop
vertex 0.070636 -0.079857 -0.058000
vertex -0.028057 -0.031755 0.114271
vertex -0.075344 -0.060589 -0.058000
endloop
endfacet
facet normal 0.972921 0.144486 0.180410
outer loop
vertex 0.049441 0.075758 -0.058000
vertex 0.024394 0.029314 0.114271
vertex 0.034051 -0.035709 0.114271
endloop
endfacet
facet normal 0.975879 0.132916 0.173188
outer loop
vertex 0.049441 0.075758 -0.058000
vertex 0.034051 -0.035709 0.114271
vertex 0.070636 -0.079857 -0.058000
endloop
endfacet
facet normal -0.496822 0.789572 0.360200
outer loop
vertex -0.069564 0.048782 -0.058000
vertex -0.021755 0.014907 0.082199
vertex 0.024394 0.029314 0.114271
endloop
endfacet
facet normal -0.215404 0.950280 0.224873
outer loop
vertex -0.069564 0.048782 -0.058000
vertex 0.024394 0.029314 0.114271
vertex 0.049441 0.075758 -0.058000
endloop
endfacet
facet normal -0.938515 0.272471 0.212012
outer loop
vertex -0.075344 -0.060589 -0.058000
vertex -0.028057 -0.031755 0.114271
vertex -0.021755 0.014907 0.082199
endloop
endfacet
facet normal -0.941575 0.049764 0.333107
outer loop
vertex -0.075344 -0.060589 -0.058000
vertex -0.021755 0.014907 0.082199
vertex -0.069564 0.048782 -0.058000
endloop
endfacet
endsolid Exported from Blender-2.93.5
